<?xml version="1.0" encoding="UTF-8" standalone="no"?>
<!-- Created with Inkscape (http://www.inkscape.org/) -->
<svg
   xmlns:dc="http://purl.org/dc/elements/1.1/"
   xmlns:cc="http://creativecommons.org/ns#"
   xmlns:rdf="http://www.w3.org/1999/02/22-rdf-syntax-ns#"
   xmlns:svg="http://www.w3.org/2000/svg"
   xmlns="http://www.w3.org/2000/svg"
   xmlns:sodipodi="http://sodipodi.sourceforge.net/DTD/sodipodi-0.dtd"
   xmlns:inkscape="http://www.inkscape.org/namespaces/inkscape"
   version="1.0"
   width="900"
   height="600"
   id="svg1325"
   sodipodi:version="0.32"
   inkscape:version="0.46"
   sodipodi:docname="Segrià.svg"
   inkscape:output_extension="org.inkscape.output.svg.inkscape">
  <metadata
     id="metadata30">
    <rdf:RDF>
      <cc:Work
         rdf:about="">
        <dc:format>image/svg+xml</dc:format>
        <dc:type
           rdf:resource="http://purl.org/dc/dcmitype/StillImage" />
        <cc:license
           rdf:resource="http://creativecommons.org/licenses/publicdomain/" />
      </cc:Work>
      <cc:License
         rdf:about="http://creativecommons.org/licenses/publicdomain/">
        <cc:permits
           rdf:resource="http://creativecommons.org/ns#Reproduction" />
        <cc:permits
           rdf:resource="http://creativecommons.org/ns#Distribution" />
        <cc:permits
           rdf:resource="http://creativecommons.org/ns#DerivativeWorks" />
      </cc:License>
    </rdf:RDF>
  </metadata>
  <sodipodi:namedview
     inkscape:window-height="718"
     inkscape:window-width="1024"
     inkscape:pageshadow="2"
     inkscape:pageopacity="0.0"
     guidetolerance="10.0"
     gridtolerance="10.0"
     objecttolerance="10.0"
     borderopacity="1.0"
     bordercolor="#666666"
     pagecolor="#ffffff"
     id="base"
     showgrid="false"
     inkscape:zoom="0.65312309"
     inkscape:cx="264.7382"
     inkscape:cy="249.04942"
     inkscape:window-x="-8"
     inkscape:window-y="-8"
     inkscape:current-layer="svg1325" />
  <defs
     id="defs1328"><inkscape:perspective
   sodipodi:type="inkscape:persp3d"
   inkscape:vp_x="0 : 300 : 1"
   inkscape:vp_y="0 : 1000 : 0"
   inkscape:vp_z="900 : 300 : 1"
   inkscape:persp3d-origin="450 : 200 : 1"
   id="perspective29" />
<inkscape:perspective
   id="perspective2429"
   inkscape:persp3d-origin="450 : 200 : 1"
   inkscape:vp_z="900 : 300 : 1"
   inkscape:vp_y="0 : 1000 : 0"
   inkscape:vp_x="0 : 300 : 1"
   sodipodi:type="inkscape:persp3d" />
<inkscape:perspective
   sodipodi:type="inkscape:persp3d"
   inkscape:vp_x="0 : 526.18109 : 1"
   inkscape:vp_y="0 : 1000 : 0"
   inkscape:vp_z="744.09448 : 526.18109 : 1"
   inkscape:persp3d-origin="372.04724 : 350.78739 : 1"
   id="perspective4331" />
<inkscape:perspective
   sodipodi:type="inkscape:persp3d"
   inkscape:vp_x="0 : 526.18109 : 1"
   inkscape:vp_y="0 : 1000 : 0"
   inkscape:vp_z="744.09448 : 526.18109 : 1"
   inkscape:persp3d-origin="372.04724 : 350.78739 : 1"
   id="perspective3324" />
<inkscape:perspective
   id="perspective10"
   inkscape:persp3d-origin="372.04724 : 350.78739 : 1"
   inkscape:vp_z="744.09448 : 526.18109 : 1"
   inkscape:vp_y="0 : 1000 : 0"
   inkscape:vp_x="0 : 526.18109 : 1"
   sodipodi:type="inkscape:persp3d" />
<inkscape:perspective
   id="perspective2412"
   inkscape:persp3d-origin="372.04724 : 350.78739 : 1"
   inkscape:vp_z="744.09448 : 526.18109 : 1"
   inkscape:vp_y="0 : 1000 : 0"
   inkscape:vp_x="0 : 526.18109 : 1"
   sodipodi:type="inkscape:persp3d" />
<inkscape:perspective
   id="perspective2971"
   inkscape:persp3d-origin="302.5 : 325 : 1"
   inkscape:vp_z="605 : 487.5 : 1"
   inkscape:vp_y="0 : 1000 : 0"
   inkscape:vp_x="0 : 487.5 : 1"
   sodipodi:type="inkscape:persp3d" />
<inkscape:perspective
   id="perspective4794"
   inkscape:persp3d-origin="207.8605 : 92.990336 : 1"
   inkscape:vp_z="415.72101 : 139.4855 : 1"
   inkscape:vp_y="0 : 1000 : 0"
   inkscape:vp_x="0 : 139.4855 : 1"
   sodipodi:type="inkscape:persp3d" />

	
	
	
	
	
	
	
	
	
	
	
	
	
	
	
	
	
	
	
	
	
	
	
	
	
	
	
	
	
	
	
	
	
	
	
	
	
	
	
	
	
	
	
	
	
	
	
	
	
	
	
	
	
	
	
	
	
	
	
	
	
	
	
	
	
	
	
	
	
	
	
	
	
	
	
	
	
	
	
	
	
	
	
	
	
	
	
	
	
	
	
	
	
	
	
	
	
	
	
	
	
	
	
	
	
		
	
		
	
		
	
		
	
		
	
		
	
		
	
		
	
		
	
		
	
		
	
		
	
		
	
	
		
	
		
	
		
	
	
		
	
		
	
		
	
	
	
		
	
	
		
	
		
	
		
	
	
		
	
	
		
	
		
	
		
	
		
	
		
	
		
	
		
	
	
		
	
		
	
		
	
	
		
	
		
	
		
	
		
	
	
		
	
		
	
		
	
	
		
	
	
		
	
	
	
		
	
		
	
		
	
		
	
	
		
	
		
	
		
	
		
	
		
	
	
	
		
	
		
	
	
		
	
		
	
		
	
	
		
	
		
	
	
	
	
		
	
	
		
	
		
	
		
	
		
	
		
	
		
	
		
	
		
	
	
	
		
	
		
	
		
	
		
	
		
	
	
		
	
	
	
		
	
		
	
	
		
	
		
	
		
	
	
	
		
	
		
	
		
	
		
	
		
	
		
	
		
	
		
	
		
	
		
	
		
	
		
	
		
	
		
	
		
	
		
	
		
	
		
	
		
	
		
	
		
	
		
	
		
	
		
	
		
	
		
	
		
	
		
	
		
	
		
	
		
	
		
	
		
	
		
	
	
		
	
		
	
	
	
	
		
	
		
	
	
	
		
	
	
		
	
		
	
		
	
		
	
		
	
		
	
		
	
		
	
		
	
	
	
		
	
		
	
	
		
	
		
	
		
	
		
	
		
	
		
	
		
	
		
	
		
	
		
	
		
	
		
	
		
	
		
	
		
	
		
	
		
	
		
	
		
	
		
	
		
	
		
	
		
	
		
	
		
	
		
	
		
	
		
	
	
	
	
		
	
		
	
		
	
		
	
		
	
		
	
		
	
		
	
		
	
		
	
		
	
		
	
		
	
		
	
		
	
		
	
		
	
		
	
		
	
		
	
		
	
		
	
		
	
		
	
		
	
		
	
		
	
		
	
		
	
		
	
		
	
		
	
		
	
		
	
		
	
		
	
		
	
		
</defs>
  <rect
     width="900"
     height="600"
     x="0"
     y="1.4664268e-14"
     style="opacity:1;fill:#fcdd09;fill-opacity:1;stroke:none;stroke-width:3.89537501000000000;stroke-linejoin:miter;stroke-miterlimit:4;stroke-dasharray:none;stroke-dashoffset:0;stroke-opacity:1"
     id="rect1334" />
  <rect
     width="0"
     height="115.675"
     x="-403.45251"
     y="352.6683"
     style="opacity:1;fill:#ff3100;fill-opacity:1;stroke:#000000;stroke-width:2;stroke-linejoin:miter;stroke-miterlimit:4;stroke-dasharray:none;stroke-dashoffset:0;stroke-opacity:1"
     id="rect1342" />
  <rect
     style="opacity:1;fill:#da121a;fill-opacity:1;fill-rule:evenodd;stroke:none;stroke-width:2.79999995000000010;stroke-linecap:square;stroke-linejoin:miter;marker:none;marker-start:none;marker-mid:none;marker-end:none;stroke-miterlimit:4;stroke-dasharray:none;stroke-dashoffset:0;stroke-opacity:1;visibility:visible;display:inline;overflow:visible;enable-background:accumulate"
     id="rect2922"
     width="75"
     height="75"
     x="0"
     y="525" />
  <rect
     style="opacity:1;fill:#da121a;fill-opacity:1;fill-rule:evenodd;stroke:none;stroke-width:2.79999995000000010;stroke-linecap:square;stroke-linejoin:miter;marker:none;marker-start:none;marker-mid:none;marker-end:none;stroke-miterlimit:4;stroke-dasharray:none;stroke-dashoffset:0;stroke-opacity:1;visibility:visible;display:inline;overflow:visible;enable-background:accumulate"
     id="rect2928"
     width="75"
     height="75"
     x="0"
     y="375" />
  <rect
     style="opacity:1;fill:#da121a;fill-opacity:1;fill-rule:evenodd;stroke:none;stroke-width:2.79999995000000010;stroke-linecap:square;stroke-linejoin:miter;marker:none;marker-start:none;marker-mid:none;marker-end:none;stroke-miterlimit:4;stroke-dasharray:none;stroke-dashoffset:0;stroke-opacity:1;visibility:visible;display:inline;overflow:visible;enable-background:accumulate"
     id="rect2930"
     width="75"
     height="75"
     x="0"
     y="225" />
  <rect
     style="opacity:1;fill:#da121a;fill-opacity:1;fill-rule:evenodd;stroke:none;stroke-width:2.79999995000000010;stroke-linecap:square;stroke-linejoin:miter;marker:none;marker-start:none;marker-mid:none;marker-end:none;stroke-miterlimit:4;stroke-dasharray:none;stroke-dashoffset:0;stroke-opacity:1;visibility:visible;display:inline;overflow:visible;enable-background:accumulate"
     id="rect2932"
     width="75"
     height="75"
     x="0"
     y="74.999977" />
  <rect
     style="opacity:1;fill:#da121a;fill-opacity:1;fill-rule:evenodd;stroke:none;stroke-width:2.79999995000000010;stroke-linecap:square;stroke-linejoin:miter;marker:none;marker-start:none;marker-mid:none;marker-end:none;stroke-miterlimit:4;stroke-dasharray:none;stroke-dashoffset:0;stroke-opacity:1;visibility:visible;display:inline;overflow:visible;enable-background:accumulate"
     id="rect2328"
     width="75"
     height="75"
     x="825"
     y="450" />
  <rect
     style="opacity:1;fill:#da121a;fill-opacity:1;fill-rule:evenodd;stroke:none;stroke-width:2.79999995000000010;stroke-linecap:square;stroke-linejoin:miter;marker:none;marker-start:none;marker-mid:none;marker-end:none;stroke-miterlimit:4;stroke-dasharray:none;stroke-dashoffset:0;stroke-opacity:1;visibility:visible;display:inline;overflow:visible;enable-background:accumulate"
     id="rect2330"
     width="75"
     height="75"
     x="825"
     y="300" />
  <rect
     style="opacity:1;fill:#da121a;fill-opacity:1;fill-rule:evenodd;stroke:none;stroke-width:2.79999995000000010;stroke-linecap:square;stroke-linejoin:miter;marker:none;marker-start:none;marker-mid:none;marker-end:none;stroke-miterlimit:4;stroke-dasharray:none;stroke-dashoffset:0;stroke-opacity:1;visibility:visible;display:inline;overflow:visible;enable-background:accumulate"
     id="rect2332"
     width="75"
     height="75"
     x="825"
     y="150" />
  <rect
     style="opacity:1;fill:#da121a;fill-opacity:1;fill-rule:evenodd;stroke:none;stroke-width:2.79999995000000010;stroke-linecap:square;stroke-linejoin:miter;marker:none;marker-start:none;marker-mid:none;marker-end:none;stroke-miterlimit:4;stroke-dasharray:none;stroke-dashoffset:0;stroke-opacity:1;visibility:visible;display:inline;overflow:visible;enable-background:accumulate"
     id="rect2334"
     width="75"
     height="75"
     x="825"
     y="-2.4795532e-05" />
  <rect
     style="opacity:1;fill:#da121a;fill-opacity:1;fill-rule:evenodd;stroke:none;stroke-width:2.79999995000000010;stroke-linecap:square;stroke-linejoin:miter;marker:none;marker-start:none;marker-mid:none;marker-end:none;stroke-miterlimit:4;stroke-dasharray:none;stroke-dashoffset:0;stroke-opacity:1;visibility:visible;display:inline;overflow:visible;enable-background:accumulate"
     id="rect2336"
     width="75"
     height="75"
     x="525"
     y="-675"
     transform="matrix(0,1,-1,0,0,0)" />
  <rect
     style="opacity:1;fill:#da121a;fill-opacity:1;fill-rule:evenodd;stroke:none;stroke-width:2.79999995000000010;stroke-linecap:square;stroke-linejoin:miter;marker:none;marker-start:none;marker-mid:none;marker-end:none;stroke-miterlimit:4;stroke-dasharray:none;stroke-dashoffset:0;stroke-opacity:1;visibility:visible;display:inline;overflow:visible;enable-background:accumulate"
     id="rect2338"
     width="75"
     height="75"
     x="525"
     y="-525"
     transform="matrix(0,1,-1,0,0,0)" />
  <rect
     style="opacity:1;fill:#da121a;fill-opacity:1;fill-rule:evenodd;stroke:none;stroke-width:2.79999995000000010;stroke-linecap:square;stroke-linejoin:miter;marker:none;marker-start:none;marker-mid:none;marker-end:none;stroke-miterlimit:4;stroke-dasharray:none;stroke-dashoffset:0;stroke-opacity:1;visibility:visible;display:inline;overflow:visible;enable-background:accumulate"
     id="rect2340"
     width="75"
     height="75"
     x="525"
     y="-375"
     transform="matrix(0,1,-1,0,0,0)" />
  <rect
     style="opacity:1;fill:#da121a;fill-opacity:1;fill-rule:evenodd;stroke:none;stroke-width:2.79999995000000010;stroke-linecap:square;stroke-linejoin:miter;marker:none;marker-start:none;marker-mid:none;marker-end:none;stroke-miterlimit:4;stroke-dasharray:none;stroke-dashoffset:0;stroke-opacity:1;visibility:visible;display:inline;overflow:visible;enable-background:accumulate"
     id="rect2342"
     width="75"
     height="75"
     x="525"
     y="-225"
     transform="matrix(0,1,-1,0,0,0)" />
  <rect
     style="opacity:1;fill:#da121a;fill-opacity:1;fill-rule:evenodd;stroke:none;stroke-width:2.79999995000000010;stroke-linecap:square;stroke-linejoin:miter;marker:none;marker-start:none;marker-mid:none;marker-end:none;stroke-miterlimit:4;stroke-dasharray:none;stroke-dashoffset:0;stroke-opacity:1;visibility:visible;display:inline;overflow:visible;enable-background:accumulate"
     id="rect2344"
     width="75"
     height="75"
     x="525"
     y="-825"
     transform="matrix(0,1,-1,0,0,0)" />
  <rect
     width="750"
     height="450"
     x="75"
     y="75.795418"
     style="opacity:1;fill:#078930;fill-opacity:1;stroke:#078930;stroke-width:1.87473214000000010;stroke-linejoin:miter;stroke-miterlimit:4;stroke-dasharray:none;stroke-dashoffset:0;stroke-opacity:1"
     id="rect1336" />
  <rect
     style="opacity:1;fill:#da121a;fill-opacity:1;fill-rule:evenodd;stroke:none;stroke-width:2.79999995000000010;stroke-linecap:square;stroke-linejoin:miter;marker:none;marker-start:none;marker-mid:none;marker-end:none;stroke-miterlimit:4;stroke-dasharray:none;stroke-dashoffset:0;stroke-opacity:1;visibility:visible;display:inline;overflow:visible;enable-background:accumulate"
     id="rect2346"
     width="75"
     height="75"
     x="0"
     y="-600"
     transform="matrix(0,1,-1,0,0,0)" />
  <rect
     style="opacity:1;fill:#da121a;fill-opacity:1;fill-rule:evenodd;stroke:none;stroke-width:2.79999995000000010;stroke-linecap:square;stroke-linejoin:miter;marker:none;marker-start:none;marker-mid:none;marker-end:none;stroke-miterlimit:4;stroke-dasharray:none;stroke-dashoffset:0;stroke-opacity:1;visibility:visible;display:inline;overflow:visible;enable-background:accumulate"
     id="rect2348"
     width="75"
     height="75"
     x="0"
     y="-450"
     transform="matrix(0,1,-1,0,0,0)" />
  <rect
     style="opacity:1;fill:#da121a;fill-opacity:1;fill-rule:evenodd;stroke:none;stroke-width:2.79999995000000010;stroke-linecap:square;stroke-linejoin:miter;marker:none;marker-start:none;marker-mid:none;marker-end:none;stroke-miterlimit:4;stroke-dasharray:none;stroke-dashoffset:0;stroke-opacity:1;visibility:visible;display:inline;overflow:visible;enable-background:accumulate"
     id="rect2350"
     width="75"
     height="75"
     x="0"
     y="-300"
     transform="matrix(0,1,-1,0,0,0)" />
  <rect
     style="opacity:1;fill:#da121a;fill-opacity:1;fill-rule:evenodd;stroke:none;stroke-width:2.79999995000000010;stroke-linecap:square;stroke-linejoin:miter;marker:none;marker-start:none;marker-mid:none;marker-end:none;stroke-miterlimit:4;stroke-dasharray:none;stroke-dashoffset:0;stroke-opacity:1;visibility:visible;display:inline;overflow:visible;enable-background:accumulate"
     id="rect2352"
     width="75"
     height="75"
     x="0"
     y="-150"
     transform="matrix(0,1,-1,0,0,0)" />
  <rect
     style="opacity:1;fill:#da121a;fill-opacity:1;fill-rule:evenodd;stroke:none;stroke-width:2.79999995000000010;stroke-linecap:square;stroke-linejoin:miter;marker:none;marker-start:none;marker-mid:none;marker-end:none;stroke-miterlimit:4;stroke-dasharray:none;stroke-dashoffset:0;stroke-opacity:1;visibility:visible;display:inline;overflow:visible;enable-background:accumulate"
     id="rect2354"
     width="75"
     height="75"
     x="0"
     y="-750"
     transform="matrix(0,1,-1,0,0,0)" />
  <rect
     width="0"
     height="115.675"
     x="-1342.0592"
     y="353.41602"
     style="fill:#ff3100;fill-opacity:1;stroke:#000000;stroke-width:2;stroke-linejoin:miter;stroke-miterlimit:4;stroke-dasharray:none;stroke-dashoffset:0;stroke-opacity:1"
     id="rect2436" />
  <g
     id="layer4"
     inkscape:label="Piezas"
     transform="translate(1007.6919,-230.75782)" />
  <g
     id="layer5"
     inkscape:label="Muebles"
     transform="matrix(2.1577965,0,0,2.1665611,-44.865735,-1161.4315)"
     style="fill:#fcdd09;stroke:none;stroke-opacity:1;stroke-width:0.46249739000000001;stroke-miterlimit:4;stroke-dasharray:none">
    <g
       id="g17326"
       transform="matrix(1.0537239,0,0,1.0537239,891.65834,-81.572024)"
       style="fill:#fcdd09;stroke:none;stroke-opacity:1;stroke-width:0.43891706000000003;stroke-miterlimit:4;stroke-dasharray:none">
      <path
         id="path2140"
         d="M -544.31754,625.69365 C -545.74473,631.27521 -544.1716,635.87002 -541.4439,640.19951 C -539.33464,643.54741 -537.94876,647.11521 -538.0147,650.94853 C -538.97417,651.48957 -539.8891,652.07275 -540.77228,652.70032 L -562.81634,638.05842 L -548.01708,659.85928 C -548.28298,660.2264 -548.54204,660.60798 -548.79146,660.98553 C -552.98903,659.0946 -556.92943,658.71965 -560.68425,659.44599 C -565.99222,660.47276 -570.49866,659.36109 -575.20435,656.55649 C -572.26677,661.51242 -567.88409,663.64792 -562.8939,664.78057 C -559.02739,665.65817 -555.53245,667.19816 -552.86532,669.96592 C -553.15552,671.00885 -553.3952,672.06371 -553.57745,673.13454 L -579.52481,678.39625 L -553.63594,683.34712 C -553.56479,683.79252 -553.47905,684.23662 -553.38809,684.68128 C -557.69452,686.31062 -560.75629,688.82547 -562.89823,691.99487 C -565.9255,696.47421 -569.87682,698.8758 -575.1874,700.22008 C -569.60585,701.64727 -565.01874,700.05555 -560.68924,697.32785 C -557.34134,695.21859 -553.77353,693.83272 -549.94022,693.89865 C -549.39918,694.85812 -548.81601,695.77306 -548.18844,696.65624 L -562.82263,718.71888 L -541.01089,703.89334 C -540.64661,704.15699 -540.27777,704.42797 -539.90322,704.67541 C -541.79415,708.87299 -542.1614,712.83195 -541.43507,716.58678 C -540.4083,721.89477 -541.52764,726.38265 -544.33226,731.08832 C -539.37633,728.15077 -537.24082,723.76807 -536.10818,718.77786 C -535.23058,714.91134 -533.69059,711.4164 -530.92283,708.74927 C -529.8778,709.04031 -528.82726,709.27877 -527.75422,709.46139 L -522.4925,735.40878 L -517.54163,709.51989 C -517.09622,709.44874 -516.65213,709.363 -516.20746,709.27205 C -514.57905,713.57976 -512.06254,716.64074 -508.89389,718.78219 C -504.41454,721.80946 -502.01294,725.76079 -500.66866,731.07135 C -499.24147,725.48982 -500.83319,720.9027 -503.5609,716.5732 C -505.67425,713.21877 -507.04464,709.66179 -506.97151,705.81647 C -506.01832,705.27818 -505.11032,704.69614 -504.23251,704.07239 L -482.16988,718.70659 L -496.97683,696.88715 C -496.71667,696.52728 -496.45768,696.15704 -496.21333,695.78718 C -492.01456,697.68356 -488.05871,698.04572 -484.30197,697.31902 C -478.994,696.29221 -474.50611,697.41164 -469.80044,700.21622 C -472.73802,695.26029 -477.113,693.14337 -482.1032,692.01072 C -485.96536,691.13412 -489.45633,689.56447 -492.12089,686.79908 C -491.83139,685.75795 -491.60927,684.7071 -491.42735,683.63817 L -465.47229,678.39504 L -491.36886,673.42559 C -491.44001,672.98019 -491.52575,672.53608 -491.6167,672.09142 C -487.30632,670.46359 -484.24881,667.94765 -482.10656,664.77784 C -479.0793,660.29851 -475.12027,657.91548 -469.8097,656.57121 C -475.39126,655.14402 -479.98606,656.71715 -484.31556,659.44485 C -487.66996,661.55821 -491.22695,662.9286 -495.07226,662.85547 C -495.61057,661.90228 -496.19261,660.99428 -496.81636,660.11647 L -482.17446,638.07241 L -504.0016,652.86079 C -504.36147,652.60062 -504.7317,652.34164 -505.10156,652.09729 C -503.20773,647.90093 -502.8357,643.95932 -503.56204,640.2045 C -504.58882,634.89652 -503.47712,630.39008 -500.67252,625.68439 C -505.62845,628.62198 -507.74539,632.99696 -508.87803,637.98715 C -509.75661,641.858 -511.32347,645.3643 -514.10054,648.03113 C -515.1385,647.74287 -516.18503,647.49266 -517.25057,647.31131 L -522.49371,621.35624 L -527.46317,647.25281 C -527.90857,647.32396 -528.35267,647.4097 -528.79733,647.50066 C -530.42638,643.19309 -532.94104,640.1328 -536.11091,637.99052 C -540.59026,634.96325 -542.97327,631.00423 -544.31754,625.69365 z"
         style="fill:#fcdd09;fill-opacity:1;fill-rule:nonzero;stroke:none;stroke-width:0.43891706000000003;stroke-linecap:butt;stroke-linejoin:miter;marker:none;marker-start:none;marker-mid:none;marker-end:none;stroke-miterlimit:4;stroke-dasharray:none;stroke-dashoffset:0;stroke-opacity:1;visibility:visible;display:inline;overflow:visible" />
      <g
         transform="matrix(1.224279,0,0,1.224279,117.41658,-154.6093)"
         id="g17317"
         style="fill:#fcdd09;stroke:none;stroke-opacity:1;stroke-width:0.35851064999999999;stroke-miterlimit:4;stroke-dasharray:none">
        <path
           style="fill:#000000;fill-opacity:1;fill-rule:evenodd;stroke:none;stroke-width:0.35851064999999999;stroke-linecap:butt;stroke-linejoin:miter;stroke-miterlimit:4;stroke-dasharray:none;stroke-opacity:1"
           d="M -527.9945,693.95121 C -524.54493,696.61454 -521.85271,696.81511 -518.42375,693.67439 C -521.97015,690.63206 -524.297,690.6306 -527.9945,693.95121 z"
           id="path16313"
           sodipodi:nodetypes="ccc" />
        <path
           style="fill:#000000;fill-opacity:1;fill-rule:evenodd;stroke:none;stroke-width:0.35851064999999999;stroke-linecap:butt;stroke-linejoin:miter;stroke-miterlimit:4;stroke-dasharray:none;stroke-opacity:1"
           d="M -536.2143,679.18933 C -535.47448,676.95615 -538.09334,676.24424 -538.94232,677.96173 L -540.44272,677.27972 C -537.37035,673.8089 -534.05708,673.62241 -530.62189,675.23371 C -529.47357,675.49912 -529.52246,677.05787 -532.25869,677.41613 C -534.03867,676.84053 -532.02545,680.76279 -536.2143,679.18933 z"
           id="path6606"
           sodipodi:nodetypes="cccccc" />
        <path
           style="fill:#000000;fill-opacity:1;fill-rule:evenodd;stroke:none;stroke-width:0.35851064999999999;stroke-linecap:butt;stroke-linejoin:miter;stroke-miterlimit:4;stroke-dasharray:none;stroke-opacity:1"
           d="M -537.85111,671.5509 C -535.2348,671.48504 -532.95437,670.13242 -529.53068,672.64211 C -528.92206,671.19831 -533.7117,668.62905 -537.85111,671.5509 z"
           id="path6608"
           sodipodi:nodetypes="ccc" />
        <path
           style="fill:#000000;fill-opacity:1;fill-rule:evenodd;stroke:none;stroke-width:0.35851064999999999;stroke-linecap:butt;stroke-linejoin:miter;stroke-miterlimit:4;stroke-dasharray:none;stroke-opacity:1"
           d="M -517.77707,672.99236 C -515.31612,672.10178 -513.58106,670.09691 -509.53904,671.39391 C -509.41869,669.8317 -514.77529,668.91054 -517.77707,672.99236 z"
           id="path6610"
           sodipodi:nodetypes="ccc" />
        <path
           style="fill:#000000;fill-opacity:1;fill-rule:evenodd;stroke:none;stroke-width:0.35851064999999999;stroke-linecap:butt;stroke-linejoin:miter;stroke-miterlimit:4;stroke-dasharray:none;stroke-opacity:1"
           d="M -513.84462,677.41613 C -514.61756,676.54946 -515.39049,676.97609 -516.16343,677.14332 C -517.13689,674.58118 -514.66089,674.97573 -513.29902,674.41531 C -509.70714,673.97647 -508.97967,675.64143 -506.6154,676.73412 L -509.61621,677.14332 C -510.11192,680.66087 -513.69129,679.26421 -513.84462,677.41613 z"
           id="path6612"
           sodipodi:nodetypes="cccccc" />
        <path
           style="fill:#000000;fill-opacity:1;fill-rule:evenodd;stroke:none;stroke-width:0.35851064999999999;stroke-linecap:butt;stroke-linejoin:miter;stroke-miterlimit:4;stroke-dasharray:none;stroke-opacity:1"
           d="M -520.80105,686.69135 C -519.11469,686.47756 -518.25419,688.5414 -520.11905,689.14656 C -522.84987,689.07793 -522.36757,687.6682 -520.80105,686.69135 z"
           id="path6614" />
        <path
           style="fill:#000000;fill-opacity:1;fill-rule:evenodd;stroke:none;stroke-width:0.35851064999999999;stroke-linecap:butt;stroke-linejoin:miter;stroke-miterlimit:4;stroke-dasharray:none;stroke-opacity:1"
           d="M -525.39682,686.83549 C -523.71046,686.6217 -522.84996,688.68554 -524.71481,689.29069 C -527.44563,689.22206 -526.96333,687.81233 -525.39682,686.83549 z"
           id="path6616"
           sodipodi:nodetypes="ccc" />
      </g>
    </g>
  </g>
  <g
     id="layer6"
     inkscape:label="Ornamentos"
     transform="translate(1007.6919,-230.75782)" />
  <polygon
     style="fill:#ffffff;fill-rule:evenodd"
     clip-rule="evenodd"
     points="415.721,194.095 415.721,154.307 412.859,152.833 410.026,151.473 407.193,150.197 404.417,149.036 401.612,147.931 398.836,146.967 396.06,146.061 393.34,145.295 390.563,144.559 387.815,143.963 385.096,143.453 382.404,143.057 379.685,142.716 376.993,142.489 374.33,142.348 371.667,142.348 368.976,142.376 366.313,142.518 363.649,142.744 361.043,143.113 358.408,143.51 355.802,144.048 353.196,144.672 350.646,145.408 348.04,146.202 345.49,147.108 342.94,148.101 340.419,149.206 337.869,150.368 335.348,151.671 332.854,153.06 330.361,154.562 328.038,155.44 325.715,156.263 323.336,157.027 322.146,157.367 321.551,157.537 320.984,157.735 318.548,158.388 317.329,158.671 316.14,158.982 314.893,159.238 313.675,159.521 311.238,160.031 310.898,160.06 310.587,160.116 309.964,160.229 308.717,160.456 307.442,160.626 306.195,160.825 303.646,161.137 301.096,161.392 298.489,161.59 295.883,161.731 293.22,161.816 292.54,161.816 292.2,161.816 291.889,161.845 290.586,161.873 288.036,161.845 285.515,161.76 283.021,161.618 280.557,161.448 278.092,161.193 275.684,160.938 273.304,160.598 270.952,160.229 268.317,159.691 265.739,159.152 263.189,158.529 260.669,157.878 258.147,157.112 255.683,156.319 253.246,155.44 250.866,154.562 247.977,153.06 245.144,151.671 242.311,150.368 239.506,149.206 236.673,148.072 233.896,147.08 231.12,146.174 228.372,145.38 225.596,144.644 222.848,144.02 220.1,143.481 217.38,143.085 214.66,142.744 211.94,142.518 209.249,142.376 206.585,142.348 203.866,142.376 201.203,142.518 198.54,142.744 195.905,143.085 193.242,143.481 190.636,144.02 188.029,144.644 185.451,145.38 182.845,146.174 180.267,147.08 177.717,148.072 175.167,149.206 172.617,150.368 170.068,151.671 167.546,153.06 165.053,154.562 162.73,155.44 160.407,156.263 158.027,157.027 156.837,157.367 156.242,157.537 155.676,157.735 155.053,157.878 154.458,158.048 153.268,158.388 152.049,158.671 150.859,158.982 149.613,159.238 148.395,159.521 145.958,160.031 145.619,160.06 145.307,160.116 144.684,160.229 143.437,160.456 140.944,160.825 138.394,161.137 135.845,161.392 133.238,161.59 130.632,161.731 127.969,161.816 127.289,161.816 126.949,161.816 126.637,161.845 125.334,161.873 122.643,161.816 119.979,161.731 117.345,161.59 114.767,161.392 112.16,161.137 109.61,160.825 107.089,160.456 104.625,160.031 102.131,159.521 99.695,158.982 97.287,158.388 94.907,157.735 92.527,157.027 90.204,156.263 87.881,155.44 85.615,154.562 82.753,153.06 79.92,151.671 77.087,150.368 74.311,149.206 71.478,148.101 68.701,147.108 65.925,146.202 63.177,145.408 60.4,144.672 57.652,144.048 54.933,143.51 52.213,143.113 49.493,142.744 46.773,142.518 44.082,142.376 41.419,142.348 38.728,142.348 36.064,142.489 33.401,142.716 30.795,143.057 28.132,143.453 25.526,143.991 22.919,144.587 20.341,145.323 17.735,146.089 15.157,146.995 12.607,147.987 10.057,149.093 7.507,150.254 4.986,151.558 2.493,152.918 0,154.42 0,194.208 2.493,192.706 4.986,191.346 7.507,190.042 10.057,188.881 12.607,187.775 15.157,186.783 17.735,185.877 20.341,185.111 22.919,184.375 25.526,183.779 28.132,183.241 30.795,182.845 33.401,182.504 36.064,182.277 38.728,182.136 41.419,182.136 44.082,182.164 46.773,182.306 49.493,182.532 52.213,182.901 54.933,183.298 57.652,183.836 60.4,184.46 63.177,185.196 65.925,185.99 68.701,186.896 71.478,187.889 74.311,188.994 77.087,190.156 79.92,191.459 82.753,192.848 85.615,194.35 87.881,195.229 90.204,196.051 92.527,196.815 94.907,197.524 97.287,198.176 99.695,198.771 102.131,199.31 104.625,199.819 107.089,200.244 109.61,200.613 112.16,200.925 114.767,201.18 117.345,201.378 119.979,201.52 122.643,201.604 125.334,201.661 126.637,201.633 126.949,201.604 127.289,201.604 127.969,201.604 130.632,201.52 133.238,201.378 135.845,201.18 138.394,200.925 140.944,200.613 143.437,200.244 144.684,200.018 145.307,199.904 145.619,199.848 145.958,199.819 148.395,199.31 149.613,199.026 150.859,198.771 152.049,198.459 153.268,198.176 154.458,197.836 155.053,197.666 155.676,197.524 156.242,197.325 156.837,197.155 158.027,196.815 160.407,196.051 162.73,195.229 165.053,194.35 167.546,192.848 170.068,191.459 172.617,190.156 175.167,188.994 177.717,187.86 180.267,186.868 182.845,185.962 185.451,185.168 188.029,184.432 190.636,183.808 193.242,183.27 195.905,182.873 198.54,182.532 201.203,182.306 203.866,182.164 206.585,182.136 209.249,182.164 211.94,182.306 214.66,182.532 217.38,182.873 220.1,183.27 222.848,183.808 225.596,184.432 228.372,185.168 231.12,185.962 233.896,186.868 236.673,187.86 239.506,188.994 242.311,190.156 245.144,191.459 247.977,192.848 250.866,194.35 253.246,195.229 255.683,196.107 258.147,196.9 260.669,197.666 263.189,198.317 265.739,198.941 268.317,199.479 270.952,200.018 273.304,200.387 275.684,200.727 278.092,200.981 280.557,201.236 283.021,201.406 285.515,201.548 288.036,201.633 290.586,201.661 291.889,201.633 292.2,201.604 292.54,201.604 293.22,201.604 295.883,201.52 298.489,201.378 301.096,201.18 303.646,200.925 306.195,200.613 307.442,200.415 308.717,200.244 309.964,200.018 310.587,199.904 310.898,199.848 311.238,199.819 313.675,199.31 314.893,199.026 316.14,198.771 317.329,198.459 318.548,198.176 320.984,197.524 321.551,197.325 322.146,197.155 323.336,196.815 325.715,196.051 328.038,195.229 330.361,194.35 332.854,192.848 335.348,191.459 337.869,190.156 340.419,188.994 342.94,187.889 345.49,186.896 348.04,185.99 350.646,185.196 353.196,184.46 355.802,183.836 358.408,183.298 361.043,182.901 363.649,182.532 366.313,182.306 368.976,182.164 371.667,182.136 374.33,182.136 376.993,182.277 379.685,182.504 382.404,182.845 385.096,183.241 387.815,183.751 390.563,184.347 393.34,185.083 396.06,185.849 398.836,186.755 401.612,187.719 404.417,188.824 407.193,189.985 410.026,191.261 412.859,192.621 415.721,194.095 "
     id="polygon4107"
     transform="matrix(1.8059533,0,0,1.2644783,75,192.21909)" />
</svg>
